<?xml version="1.0" encoding="UTF-8"?>
<svg width="316px" height="121px" viewBox="0 0 316 121" version="1.1" xmlns="http://www.w3.org/2000/svg" xmlns:xlink="http://www.w3.org/1999/xlink">
    <!-- Generator: Sketch 43.1 (39012) - http://www.bohemiancoding.com/sketch -->
    <title>logo</title>
    <desc>Created with Sketch.</desc>
    <defs></defs>
    <g id="Page-1" stroke="none" stroke-width="1" fill="none" fill-rule="evenodd">
        <g id="logo">
            <path d="M99.5,11.8 C85.6,5.9 72.3,3.1 60.1,2.1 L60.1,1.9 L56,1.9 C54.7,1.8 53.3,1.8 52,1.8 L52,1.9 L48.5,1.9 L48.5,1.8 C47.2,1.8 45.9,1.9 44.5,1.9 L44.4,1.9 L44.4,1.9 C31.2,2.5 16.4,5.2 0.9,11.8 C0.9,11.8 17.5,36.2 0.9,63.4 C0.9,63.4 6.8,97.8 50.2,120.1 C93.6,97.8 99.5,63.4 99.5,63.4 C82.9,36.2 99.5,11.8 99.5,11.8 Z" id="Shape" fill="#2E6475" fill-rule="nonzero"></path>
            <path d="M99.5,10.6 C85.6,4.7 72.3,1.9 60.1,0.9 L60.1,0.7 L56,0.7 C54.7,0.6 53.3,0.6 52,0.6 L52,0.7 L48.5,0.7 L48.5,0.6 C47.2,0.6 45.9,0.7 44.5,0.7 L44.4,0.7 L44.4,0.7 C31.2,1.3 16.4,4 0.9,10.6 C0.9,10.6 17.5,35 0.9,62.2 C0.9,62.2 6.8,96.6 50.2,118.9 C93.6,96.6 99.5,62.2 99.5,62.2 C82.9,35 99.5,10.6 99.5,10.6 Z" id="Shape" fill="#2C3F88" fill-rule="nonzero"></path>
            <g id="Group" transform="translate(20.000000, 7.000000)" fill-rule="nonzero" fill="#FFFFFF">
                <path d="M30.3,104.7 C28.6,103.8 10.8,94.7 1.3,80.7 L0.5,80.7 C10.5,95.7 30,105.3 30.2,105.4 L30.3,105.5 L30.4,105.4 C30.2,105.4 30.3,104.7 30.3,104.7 Z" id="Shape"></path>
                <path d="M70.5,49.8 L67.2,37.4 L67.2,29.9 L67.9,21.8 L69.4,17.4 L71.3,11.5 L72.8,8.3 L72.4,8.1 C70.8,7.3 69.1,6.6 67.4,5.9 L66.1,5.3 L65.4,5.1 C47,-1 23,1.1 13.3,2.3 L12.5,2.3 L9.8,2.6 C9.8,2.6 9.9,2.6 10.1,2.7 C9.3,2.8 8.8,2.9 8.8,2.9 C8.8,2.9 10.3,3.4 12.4,3.3 C19.8,5.2 40.4,11.2 47.3,18.3 C47.3,18.3 75.6,39.6 55.5,58.7 L53.6,59.5 C53.6,59.5 49.2,48.1 36.3,45.5 C28,43.8 10.3,60.3 2.9,72 C2.6,72.7 68,72 68,72 L74.7,56.3 L70.5,49.8 Z" id="Shape"></path>
            </g>
            <g id="Group" transform="translate(116.000000, 22.000000)" fill-rule="nonzero" fill="#2C3F88">
                <path d="M22,21.7 C22,23.3 21.7,24.7 21.1,25.9 C20.5,27.1 19.7,28.1 18.6,28.8 C17.5,29.6 16.3,30.1 14.8,30.5 C13.3,30.9 11.7,31.1 10,31.1 C8.5,31.1 7,31 5.5,30.8 C4.1,30.6 2.6,30.3 1.2,29.9 L1.2,24.4 C1.9,24.6 2.6,24.9 3.4,25.1 C4.2,25.3 4.9,25.5 5.7,25.7 C6.5,25.9 7.2,26 8,26.1 C8.8,26.2 9.5,26.2 10.2,26.2 C11.3,26.2 12.1,26.1 12.9,25.9 C13.6,25.7 14.2,25.5 14.7,25.2 C15.2,24.9 15.5,24.5 15.7,24.1 C15.9,23.7 16,23.2 16,22.7 C16,22 15.8,21.4 15.4,20.9 C15,20.4 14.4,20 13.8,19.6 C13.1,19.2 12.4,18.9 11.5,18.6 C10.6,18.3 9.8,18 8.9,17.6 C8,17.3 7.1,16.9 6.3,16.4 C5.5,15.9 4.7,15.4 4,14.8 C3.3,14.2 2.8,13.4 2.4,12.5 C2,11.6 1.8,10.5 1.8,9.3 C1.8,8.1 2,7 2.4,6 C2.8,5 3.5,4.1 4.4,3.3 C5.3,2.5 6.5,1.9 7.9,1.5 C9.3,1 11,0.8 13,0.8 C13.6,0.8 14.2,0.8 14.8,0.9 C15.4,1 16.1,1 16.7,1.1 C17.3,1.2 17.9,1.3 18.5,1.4 C19.1,1.5 19.6,1.6 20.1,1.7 L20.1,6.8 C19.6,6.6 19.1,6.5 18.5,6.3 C17.9,6.1 17.3,6 16.7,5.9 C16.1,5.8 15.5,5.7 14.9,5.6 C14.3,5.5 13.7,5.5 13.1,5.5 C12.1,5.5 11.3,5.6 10.6,5.7 C9.9,5.9 9.4,6.1 8.9,6.4 C8.4,6.7 8.1,7 8,7.4 C7.8,7.8 7.7,8.3 7.7,8.8 C7.7,9.4 7.9,9.9 8.3,10.4 C8.7,10.8 9.3,11.2 9.9,11.6 C10.6,12 11.4,12.3 12.2,12.6 C13.1,12.9 14,13.2 14.9,13.6 C15.8,14 16.7,14.4 17.6,14.8 C18.5,15.3 19.2,15.8 19.9,16.4 C20.6,17 21.1,17.8 21.5,18.7 C21.8,19.5 22,20.5 22,21.7 Z" id="Shape"></path>
                <path d="M48.9,15.8 C48.9,18.5 48.6,20.8 48,22.7 C47.4,24.6 46.5,26.2 45.4,27.5 C44.3,28.7 43,29.7 41.6,30.3 C40.2,30.9 38.6,31.2 36.9,31.2 C33,31.2 30.1,29.9 28.2,27.3 C26.2,24.7 25.3,21 25.3,16.1 C25.3,13.4 25.6,11.1 26.2,9.2 C26.8,7.3 27.7,5.7 28.8,4.4 C29.9,3.2 31.2,2.2 32.6,1.6 C34.1,1 35.6,0.7 37.3,0.7 C41.2,0.7 44.1,2 46,4.6 C47.9,7.1 48.9,10.8 48.9,15.8 Z M43,16 C43,12.5 42.5,9.9 41.6,8.2 C40.7,6.5 39.1,5.6 37,5.6 C35.9,5.6 35,5.8 34.3,6.3 C33.5,6.7 32.9,7.4 32.4,8.3 C31.9,9.2 31.6,10.2 31.3,11.5 C31.1,12.8 31,14.2 31,15.8 C31,19.3 31.5,21.9 32.4,23.6 C33.3,25.3 34.9,26.2 37,26.2 C38.1,26.2 39,26 39.7,25.5 C40.5,25.1 41.1,24.4 41.6,23.5 C42.1,22.6 42.4,21.6 42.7,20.3 C42.9,19.1 43,17.6 43,16 Z" id="Shape"></path>
                <path d="M73.2,19.8 C73.2,21.7 72.9,23.3 72.4,24.7 C71.9,26.1 71.2,27.3 70.2,28.3 C69.3,29.2 68.1,30 66.8,30.4 C65.4,30.9 63.9,31.1 62.2,31.1 C60.3,31.1 58.7,30.9 57.3,30.4 C55.9,29.9 54.8,29.2 54,28.3 C53.2,27.4 52.5,26.3 52.2,25 C51.9,23.7 51.6,22.3 51.6,20.6 L51.6,1.1 L57.1,1.1 L57.1,20.3 C57.1,21.3 57.2,22.2 57.4,22.9 C57.6,23.7 57.9,24.3 58.3,24.9 C58.7,25.5 59.3,25.8 59.9,26.1 C60.5,26.4 61.4,26.5 62.3,26.5 C63.2,26.5 64,26.4 64.6,26.2 C65.2,26 65.8,25.6 66.2,25.1 C66.6,24.6 66.9,23.9 67.1,23.1 C67.3,22.3 67.4,21.3 67.4,20.1 L67.4,1.1 L72.9,1.1 L72.9,19.8 L73.2,19.8 Z" id="Shape"></path>
                <path d="M92.9,30.6 L88.8,21.1 C88.4,20.2 87.9,19.5 87.2,19.1 C86.5,18.6 85.7,18.4 84.7,18.4 L83.6,18.4 L83.6,30.6 L78,30.6 L78,1.1 L86.6,1.1 C88.2,1.1 89.7,1.2 91,1.5 C92.3,1.8 93.5,2.2 94.4,2.9 C95.3,3.5 96,4.4 96.6,5.4 C97.1,6.4 97.4,7.7 97.4,9.2 C97.4,10.3 97.2,11.2 96.9,12.1 C96.6,12.9 96.1,13.7 95.6,14.3 C95.1,14.9 94.3,15.4 93.6,15.8 C92.8,16.2 91.9,16.4 91,16.6 C91.7,16.8 92.4,17.2 93,17.8 C93.6,18.5 94.2,19.4 94.8,20.7 L99.5,30.6 L92.9,30.6 L92.9,30.6 Z M91.5,9.8 C91.5,8.4 91,7.3 90.1,6.7 C89.2,6.1 87.8,5.8 86,5.8 L83.6,5.8 L83.6,14.1 L85.9,14.1 C86.8,14.1 87.5,14 88.2,13.8 C88.9,13.6 89.5,13.3 90,13 C90.5,12.7 90.9,12.2 91.2,11.7 C91.4,11.1 91.5,10.5 91.5,9.8 Z" id="Shape"></path>
                <path d="M123.2,29.5 C121.9,30 120.6,30.4 119.4,30.7 C118.2,31 116.9,31.1 115.6,31.1 C113.5,31.1 111.6,30.8 110,30.2 C108.4,29.6 107,28.6 105.9,27.4 C104.8,26.2 103.9,24.6 103.4,22.8 C102.8,21 102.5,18.9 102.5,16.4 C102.5,13.9 102.8,11.7 103.4,9.8 C104,7.9 104.9,6.2 106.1,4.9 C107.3,3.6 108.7,2.6 110.4,1.9 C112.1,1.2 114,0.9 116,0.9 C116.7,0.9 117.3,0.9 117.9,0.9 C118.5,0.9 119.1,1 119.6,1.1 C120.2,1.2 120.7,1.3 121.3,1.4 C121.9,1.5 122.5,1.7 123.1,1.9 L123.1,7.4 C121.8,6.8 120.6,6.4 119.4,6.1 C118.2,5.8 117.2,5.7 116.2,5.7 C114.8,5.7 113.6,6 112.6,6.5 C111.6,7 110.8,7.7 110.2,8.6 C109.6,9.5 109.1,10.6 108.8,11.8 C108.5,13.1 108.3,14.4 108.3,15.9 C108.3,17.5 108.5,18.9 108.8,20.2 C109.1,21.5 109.6,22.5 110.2,23.4 C110.8,24.3 111.7,24.9 112.7,25.4 C113.7,25.9 114.9,26.1 116.3,26.1 C116.8,26.1 117.3,26.1 117.9,26 C118.5,25.9 119.1,25.8 119.7,25.6 C120.3,25.4 120.9,25.3 121.5,25 C122.1,24.8 122.6,24.6 123.1,24.3 L123.1,29.5 L123.2,29.5 Z" id="Shape"></path>
                <polygon id="Shape" points="129.3 5.7 129.3 1.2 147.9 1.2 147.9 5.7 141.4 5.7 141.4 26 147.9 26 147.9 30.6 129.3 30.6 129.3 26 135.8 26 135.8 5.6 129.3 5.6"></polygon>
                <polygon id="Shape" points="168 30.6 160.1 13 158.5 9.2 158.5 21.4 158.5 30.6 153.4 30.6 153.4 1.1 160.2 1.1 168.2 18.8 169.6 22.3 169.6 9.3 169.6 1.2 174.7 1.2 174.7 30.7 168 30.7"></polygon>
                <path d="M189.5,18.1 L189.5,13.5 L200,13.5 L200,29.2 C198.6,29.8 197.2,30.3 195.8,30.6 C194.3,30.9 192.7,31.1 191,31.1 C189,31.1 187.1,30.8 185.5,30.2 C183.9,29.6 182.5,28.6 181.3,27.4 C180.2,26.2 179.3,24.6 178.7,22.8 C178.1,21 177.8,18.8 177.8,16.4 C177.8,14 178.1,11.8 178.8,9.8 C179.4,7.9 180.4,6.2 181.6,4.9 C182.8,3.6 184.3,2.5 186.1,1.8 C187.9,1.1 189.9,0.7 192.2,0.7 C193.6,0.7 194.9,0.8 196.2,1 C197.5,1.2 198.8,1.5 200,1.9 L200,7.4 C198.9,6.9 197.7,6.4 196.3,6.1 C195,5.8 193.6,5.6 192.2,5.6 C190.8,5.6 189.6,5.8 188.5,6.3 C187.4,6.8 186.6,7.5 185.8,8.4 C185.1,9.3 184.5,10.4 184.2,11.7 C183.8,13 183.6,14.5 183.6,16.1 C183.6,17.7 183.7,19.1 184,20.3 C184.3,21.6 184.7,22.6 185.4,23.5 C186.1,24.4 186.9,25.1 187.9,25.5 C188.9,26 190.1,26.2 191.6,26.2 C191.9,26.2 192.2,26.2 192.5,26.2 C192.8,26.2 193,26.1 193.2,26.1 C193.4,26.1 193.6,26 193.8,25.9 C194,25.8 194.2,25.8 194.4,25.7 L194.4,18.2 L189.5,18.2 L189.5,18.1 Z" id="Shape"></path>
                <path d="M22.4,63.6 C22.4,65.5 22.1,67.1 21.6,68.5 C21.1,69.9 20.4,71.1 19.4,72.1 C18.5,73 17.3,73.8 16,74.2 C14.6,74.7 13.1,74.9 11.4,74.9 C9.5,74.9 7.9,74.7 6.5,74.2 C5.1,73.7 4,73 3.2,72.1 C2.4,71.2 1.7,70.1 1.4,68.8 C1,67.5 0.8,66.1 0.8,64.4 L0.8,44.9 L6.3,44.9 L6.3,64.1 C6.3,65.1 6.4,66 6.6,66.7 C6.8,67.5 7.1,68.1 7.5,68.7 C7.9,69.3 8.5,69.6 9.1,69.9 C9.7,70.2 10.6,70.3 11.5,70.3 C12.4,70.3 13.2,70.2 13.8,70 C14.4,69.8 15,69.4 15.4,68.9 C15.8,68.4 16.1,67.7 16.3,66.9 C16.5,66.1 16.6,65.1 16.6,63.9 L16.6,44.9 L22.1,44.9 L22.1,63.6 L22.4,63.6 Z" id="Shape"></path>
                <polygon id="Shape" points="41 74.4 33.1 56.8 31.5 53 31.5 65.2 31.5 74.4 26.4 74.4 26.4 44.9 33.2 44.9 41.2 62.6 42.6 66.1 42.6 53.1 42.6 45 47.7 45 47.7 74.5 41 74.5"></polygon>
                <polygon id="Shape" points="53.1 49.5 53.1 45 71.7 45 71.7 49.5 65.2 49.5 65.2 69.9 71.7 69.9 71.7 74.5 53.1 74.5 53.1 69.9 59.6 69.9 59.6 49.5"></polygon>
                <polygon id="Shape" points="90.7 49.6 90.7 74.4 85 74.4 85 49.6 76.9 49.6 76.9 45 98.7 45 98.7 49.6"></polygon>
                <polygon id="Shape" points="104.7 74.4 104.7 44.9 122.4 44.9 122.4 49.6 110.3 49.6 110.3 56.9 121.8 56.9 121.8 61.5 110.3 61.5 110.3 69.7 122.4 69.7 122.4 74.4"></polygon>
                <path d="M150.1,59.3 C150.1,61.6 149.8,63.7 149.3,65.5 C148.7,67.4 147.9,69 146.7,70.3 C145.5,71.6 144,72.6 142.1,73.3 C140.2,74 138,74.4 135.4,74.4 L127.9,74.4 L127.9,44.9 L136.6,44.9 C138.9,44.9 140.8,45.2 142.5,45.7 C144.2,46.3 145.6,47.1 146.7,48.3 C147.8,49.5 148.7,51 149.2,52.8 C149.8,54.6 150.1,56.8 150.1,59.3 Z M144.2,59.7 C144.2,58.1 144.1,56.7 143.8,55.4 C143.5,54.2 143.1,53.1 142.5,52.2 C141.9,51.3 141.1,50.7 140.1,50.2 C139.1,49.7 137.8,49.5 136.3,49.5 L133.5,49.5 L133.5,69.7 L135.9,69.7 C138.6,69.7 140.7,68.9 142.1,67.3 C143.5,65.7 144.2,63.1 144.2,59.7 Z" id="Shape"></path>
            </g>
            <path d="M8.5,15.9 C8.5,15.9 22.2,8 35.2,13.5 C35.2,13.5 73.1,22.8 77.1,43.9 C77.1,43.9 76.4,45.8 72.7,46.2 C72.7,46.2 67.9,43.7 65.8,35 C65.8,35 65.2,37.4 65.6,38.6 C65.6,38.6 59.4,29.8 54.2,28.5 C54.2,28.5 61.1,34.3 63.6,39.4 C63.6,39.4 60.2,44 64,46.2 C67.9,48.4 68.6,45.3 68.6,45.3 C68.6,45.3 71.6,47.4 69.9,50.3 C69.9,50.3 64.4,48.9 60.9,49.2 L49.5,45.3 L55.7,48.4 L48.8,48 L52,49.8 C52,49.8 29,46.7 15.8,55.8 L16,57.2 C16,57.2 26.6,50.5 40.4,50.8 C40.4,50.8 23.8,54 17.2,60.8 L17.4,61.9 C17.4,61.9 34,48.6 52.7,52.3 C52.7,52.3 26.7,54.5 18.2,79.9 L18.9,81.1 C18.9,81.1 26.6,65.6 33.5,61.7 L33.4,62.8 C33.4,62.8 20.3,76.8 18.5,86.3 C18.5,86.3 8,71.4 7,64.8 C7.1,64.4 22.1,39.4 8.5,15.9 Z" id="Shape" fill="#FFFFFF" fill-rule="nonzero"></path>
            <path d="M56.2,51.1 L58.3,49.4 C58.3,49.4 69.6,53 71.5,61.3 C71.6,61.3 64,52.4 56.2,51.1 Z" id="Shape" fill="#FFFFFF" fill-rule="nonzero"></path>
            <path d="M61.8,49.6 L68.1,51.7 C68.1,51.7 71.3,52.9 72.2,49.6 C73.1,46.3 77.6,46.9 78.1,47.5 C78.6,48.1 84.8,58.7 73.2,65.4 C73.2,65.4 75.3,55.7 61.8,49.6 Z" id="Shape" fill="#FFFFFF" fill-rule="nonzero"></path>
            <path d="M72.4,51.7 C72.4,51.7 73.9,51.7 74.3,50.6 C74.8,49.6 77.2,50.6 77,51.2 C76.8,51.8 74.2,53.7 72.4,51.7 Z" id="Shape" fill="#2C3F88" fill-rule="nonzero"></path>
            <path d="M65.9,40.2 C65.9,40.2 67.9,42.7 65.9,44.5 C65.9,44.5 64.1,42.8 65.9,40.2 Z" id="Shape" fill="#FFFFFF" fill-rule="nonzero"></path>
            <polygon id="Shape" fill="#FFFFFF" fill-rule="nonzero" points="50.7 87.9 51.8 91.3 55.4 91.3 52.5 93.5 53.6 96.9 50.7 94.8 47.7 96.9 48.9 93.5 45.9 91.3 49.5 91.3"></polygon>
            <polygon id="Shape" fill="#FFFFFF" fill-rule="nonzero" points="62.4 89.2 63.3 92.2 66.5 92.2 63.9 94.1 64.9 97 62.4 95.2 59.8 97 60.8 94.1 58.3 92.2 61.4 92.2"></polygon>
            <polygon id="Shape" fill="#FFFFFF" fill-rule="nonzero" points="39.4 89.3 40.4 92.3 43.5 92.3 41 94.1 41.9 97.1 39.4 95.3 36.9 97.1 37.8 94.1 35.3 92.3 38.4 92.3"></polygon>
            <path d="M92.7,15.2 C92.7,15.2 79.8,40.6 94.5,63.4 C94.5,63.4 86.7,61.5 86.7,61.3 C86.7,61.1 83.1,35.6 83.1,35.6 L83.1,22.6 L92.7,15.2 Z" id="Shape" fill="#FFFFFF" fill-rule="nonzero"></path>
            <path d="M92.7,15.2 L50.2,15.5 L28.6,10 C28.6,10 52.4,5.8 74.9,9.5 C78.1,10 92.7,15.2 92.7,15.2 Z" id="Shape" fill="#A02232" fill-rule="nonzero"></path>
            <polygon id="Shape" fill="#A02232" fill-rule="nonzero" points="89 26.2 68.7 26.4 60.9 20.8 90.4 20.7"></polygon>
            <polygon id="Shape" fill="#A02232" fill-rule="nonzero" points="87.6 36.6 77.6 36.6 73.9 31.7 88 31.7"></polygon>
            <polygon id="Shape" fill="#A02232" fill-rule="nonzero" points="88.1 46.8 82.2 46.8 80.8 42.3 87.6 42.3"></polygon>
            <path d="M91.1,57 L81.5,57.2 C81.5,57.2 82.7,53.8 82.6,52.3 L89.5,52.3 L91.1,57 Z" id="Shape" fill="#A02232" fill-rule="nonzero"></path>
            <path d="M66.1,57.1 L43.7,57.2 C43.7,57.2 47,54.5 50.2,53.2 C51.3,52.7 53.8,52.4 55.1,52.5 C58.1,52.6 64.1,54.9 66.1,57.1 Z" id="Shape" fill="#A02232" fill-rule="nonzero"></path>
            <path d="M75.9,65.2 C75.9,65.2 74.4,67.4 73.9,67.5 L73.4,66.4 C73.4,66.4 75.5,64.4 75.7,64.5 C75.9,64.6 75.9,65.2 75.9,65.2 Z" id="Shape" fill="#2C3F88" fill-rule="nonzero"></path>
            <polygon id="Shape" fill="#A02232" fill-rule="nonzero" points="77.9 63.2 73.2 69.2 91.9 69.5 94.5 63.4 93 63.4"></polygon>
            <path d="M70.7,63.2 L37.3,62.8 L32.1,68.8 L73.9,69.2 C74,69.2 71.7,63.5 70.7,63.2 Z" id="Shape" fill="#A02232" fill-rule="nonzero"></path>
            <path d="M70.7,63.2 C70.7,63.2 73.3,65.8 73.8,67.4 L75.3,67.8 C75.3,67.8 75.2,68.5 75.2,68.6 C75.1,68.7 71.8,68.6 71.8,68.6 L70.2,64.2 L70.7,63.2 Z" id="Shape" fill="#A02232" fill-rule="nonzero"></path>
            <path d="M77.9,63.2 L73.9,67.5 C73.9,67.5 76.3,69 76.4,69 C76.5,69 79,66.8 79.1,66.6 C79.1,66.3 77.9,63.2 77.9,63.2 Z" id="Shape" fill="#A02232" fill-rule="nonzero"></path>
            <path d="M70.2,63.2 L71.5,63.2 C71.5,63.2 73.4,65.4 73.8,67.5 C73.8,67.5 70.5,65.8 70.5,65.8 C70.5,65.7 70.2,63.2 70.2,63.2 Z" id="Shape" fill="#A02232" fill-rule="nonzero"></path>
            <path d="M37.3,62.8 L36.8,62.8 L30.8,68.7 L32.9,68.8 C32.9,68.8 37.7,66 37.7,66 C37.7,66 37.3,62.8 37.3,62.8 Z" id="Shape" fill="#A02232" fill-rule="nonzero"></path>
            <path d="M88.8,77.2 L24.7,76.2 C24.7,76.2 18.7,82.7 19,84.2 L83.8,85.1 L88.8,77.2 Z" id="Shape" fill="#A02232" fill-rule="nonzero"></path>
            <path d="M91.3,71.4 C88,80.7 70.9,104.1 50.2,112.2" id="Shape" stroke="#FFFFFF" stroke-width="0.5"></path>
            <path d="M94.3,63.2 L90.8,72.8" id="Shape" stroke="#FFFFFF" stroke-width="0.5"></path>
            <path d="M76.4,9.8 C76.4,9.8 87.4,11.5 92.8,15.2 L76,13.1 L76.4,9.8 Z" id="Shape" fill="#A02232" fill-rule="nonzero"></path>
        </g>
    </g>
</svg>